<?xml version="1.0" standalone="no"?>
<!DOCTYPE svg PUBLIC "-//W3C//DTD SVG 20010904//EN"
 "http://www.w3.org/TR/2001/REC-SVG-20010904/DTD/svg10.dtd">
<svg version="1.0" xmlns="http://www.w3.org/2000/svg"
 width="512.000000pt" height="512.000000pt" viewBox="0 0 512.000000 512.000000"
 preserveAspectRatio="xMidYMid meet">
<metadata>
Created by potrace 1.14, written by Peter Selinger 2001-2017
</metadata>
<g transform="translate(0.000000,512.000000) scale(0.100000,-0.100000)"
fill="#000000" stroke="none">
<path d="M2408 4825 c-2 -2 -34 -6 -73 -9 -38 -4 -81 -9 -95 -11 -14 -2 -41
-7 -60 -10 -34 -5 -49 -7 -115 -21 -177 -35 -470 -149 -635 -247 -95 -56 -267
-173 -290 -197 -3 -3 -21 -18 -40 -34 -103 -83 -258 -247 -355 -376 -116 -152
-245 -389 -315 -579 -35 -95 -84 -276 -99 -366 -6 -33 -13 -73 -16 -90 -25
-146 -26 -494 0 -635 2 -14 6 -41 9 -60 18 -124 72 -318 127 -458 202 -509
573 -921 1053 -1173 226 -117 431 -186 701 -234 17 -3 59 -8 95 -12 36 -3 73
-10 84 -15 14 -7 16 -7 11 2 -5 9 -3 9 11 2 20 -10 286 -9 339 1 17 3 55 8 85
12 171 17 393 75 577 149 519 209 943 606 1192 1116 78 158 162 418 187 574 3
21 8 48 10 60 7 37 17 130 18 173 1 24 4 43 8 43 7 0 2 254 -6 330 -26 239
-76 444 -156 645 -36 91 -123 267 -151 307 -11 14 -19 29 -19 33 0 9 -102 155
-149 215 -20 24 -45 56 -56 70 -44 55 -235 239 -310 299 -167 134 -377 257
-567 332 -98 39 -205 76 -238 83 -8 1 -33 8 -55 14 -22 6 -51 13 -65 16 -14 3
-35 7 -46 10 -35 7 -92 16 -209 32 -47 6 -381 14 -387 9z"/>
</g>
</svg>
